<svg width="26" height="26" viewBox="0 0 26 26" fill="none" xmlns="http://www.w3.org/2000/svg">
<path d="M11.353 0.186686C5.37582 0.186686 0.513586 5.04892 0.513586 11.0261C0.513586 17.0032 5.37582 21.8654 11.353 21.8654C13.1802 21.8654 14.9764 21.4318 16.4939 20.5957C16.6155 20.7419 16.7502 20.8767 16.8965 20.9983L19.9935 24.0952C20.2794 24.417 20.6282 24.6769 21.0182 24.8591C21.4083 25.0412 21.8314 25.1417 22.2617 25.1543C22.692 25.167 23.1204 25.0916 23.5205 24.9327C23.9206 24.7739 24.284 24.5349 24.5884 24.2305C24.8928 23.9261 25.1317 23.5627 25.2906 23.1626C25.4495 22.7625 25.5249 22.3342 25.5122 21.9039C25.4996 21.4736 25.3991 21.0504 25.2169 20.6603C25.0348 20.2703 24.7749 19.9216 24.4531 19.6356L21.3561 16.5386C21.2053 16.3877 21.0392 16.2528 20.8606 16.136C21.6968 14.6185 22.2233 12.8533 22.2233 10.9951C22.2233 5.01795 17.3611 0.155716 11.3839 0.155716L11.353 0.186686ZM11.353 3.28365C15.6577 3.28365 19.0954 6.72128 19.0954 11.0261C19.0954 13.07 18.3521 14.9592 17.0514 16.3528C17.0204 16.3838 16.9894 16.4148 16.9585 16.4457C16.8122 16.5673 16.6774 16.7021 16.5559 16.8483C15.1932 18.0871 13.335 18.7994 11.322 18.7994C7.01721 18.7994 3.57958 15.3618 3.57958 11.057C3.57958 6.75225 7.01721 3.31462 11.322 3.31462L11.353 3.28365Z" fill="#76A339"/>
</svg>
